<mxfile host="app.diagrams.net" modified="2021-08-18T10:44:32.090Z" agent="5.0 (Windows NT 10.0; Win64; x64) AppleWebKit/537.36 (KHTML, like Gecko) Chrome/92.0.4515.131 Safari/537.36" etag="kHl2z7y6QZA8rIN4PmkL" version="14.9.7" type="github">
  <diagram id="TL2Jbofo3QWMI_NeXjyA" name="Page-1">
    <mxGraphModel dx="1185" dy="635" grid="1" gridSize="10" guides="1" tooltips="1" connect="1" arrows="1" fold="1" page="1" pageScale="1" pageWidth="850" pageHeight="1100" math="0" shadow="0">
      <root>
        <mxCell id="0" />
        <mxCell id="1" parent="0" />
        <mxCell id="MzCvwsorntfidAb9WdOw-4" value="" style="outlineConnect=0;fontColor=#232F3E;gradientColor=none;fillColor=#116D5B;strokeColor=none;dashed=0;verticalLabelPosition=bottom;verticalAlign=top;align=center;html=1;fontSize=12;fontStyle=0;aspect=fixed;shape=mxgraph.aws4.transfer_for_sftp_resource;" vertex="1" parent="1">
          <mxGeometry x="30" y="440" width="76" height="78" as="geometry" />
        </mxCell>
        <mxCell id="MzCvwsorntfidAb9WdOw-29" style="edgeStyle=orthogonalEdgeStyle;rounded=0;orthogonalLoop=1;jettySize=auto;html=1;entryX=0;entryY=0.5;entryDx=0;entryDy=0;entryPerimeter=0;fontColor=#000000;" edge="1" parent="1" source="MzCvwsorntfidAb9WdOw-6" target="MzCvwsorntfidAb9WdOw-22">
          <mxGeometry relative="1" as="geometry" />
        </mxCell>
        <mxCell id="MzCvwsorntfidAb9WdOw-6" value="推荐接口服务*7" style="points=[[0,0,0],[0.25,0,0],[0.5,0,0],[0.75,0,0],[1,0,0],[0,1,0],[0.25,1,0],[0.5,1,0],[0.75,1,0],[1,1,0],[0,0.25,0],[0,0.5,0],[0,0.75,0],[1,0.25,0],[1,0.5,0],[1,0.75,0]];gradientDirection=north;outlineConnect=0;fillColor=#e1d5e7;strokeColor=#9673a6;dashed=0;verticalLabelPosition=bottom;verticalAlign=top;align=center;html=1;fontSize=12;fontStyle=0;aspect=fixed;shape=mxgraph.aws4.resourceIcon;resIcon=mxgraph.aws4.general;" vertex="1" parent="1">
          <mxGeometry x="340" y="430" width="78" height="78" as="geometry" />
        </mxCell>
        <mxCell id="MzCvwsorntfidAb9WdOw-7" value="Hbase集群" style="outlineConnect=0;fontColor=#000000;fillColor=#e3c800;strokeColor=#B09500;dashed=0;verticalLabelPosition=bottom;verticalAlign=top;align=center;html=1;fontSize=12;fontStyle=0;aspect=fixed;pointerEvents=1;shape=mxgraph.aws4.generic_database;" vertex="1" parent="1">
          <mxGeometry x="170" y="710" width="59" height="78" as="geometry" />
        </mxCell>
        <mxCell id="MzCvwsorntfidAb9WdOw-34" style="edgeStyle=orthogonalEdgeStyle;rounded=0;orthogonalLoop=1;jettySize=auto;html=1;fontColor=#000000;" edge="1" parent="1" source="MzCvwsorntfidAb9WdOw-8" target="MzCvwsorntfidAb9WdOw-32">
          <mxGeometry relative="1" as="geometry" />
        </mxCell>
        <mxCell id="MzCvwsorntfidAb9WdOw-8" value="F5硬件负载均衡" style="outlineConnect=0;fontColor=#232F3E;gradientColor=none;fillColor=#232F3E;strokeColor=none;dashed=0;verticalLabelPosition=bottom;verticalAlign=top;align=center;html=1;fontSize=12;fontStyle=0;aspect=fixed;pointerEvents=1;shape=mxgraph.aws4.traditional_server;" vertex="1" parent="1">
          <mxGeometry x="356.5" y="130" width="45" height="78" as="geometry" />
        </mxCell>
        <mxCell id="MzCvwsorntfidAb9WdOw-15" value="MySQL" style="outlineConnect=0;fillColor=#60a917;strokeColor=#2D7600;dashed=0;verticalLabelPosition=bottom;verticalAlign=top;align=center;html=1;fontSize=12;fontStyle=0;aspect=fixed;pointerEvents=1;shape=mxgraph.aws4.generic_database;" vertex="1" parent="1">
          <mxGeometry x="610" y="710" width="59" height="78" as="geometry" />
        </mxCell>
        <mxCell id="MzCvwsorntfidAb9WdOw-16" value="GP集群" style="outlineConnect=0;fillColor=#1ba1e2;strokeColor=#006EAF;dashed=0;verticalLabelPosition=bottom;verticalAlign=top;align=center;html=1;fontSize=12;fontStyle=0;aspect=fixed;pointerEvents=1;shape=mxgraph.aws4.generic_database;" vertex="1" parent="1">
          <mxGeometry x="390" y="710" width="59" height="78" as="geometry" />
        </mxCell>
        <mxCell id="MzCvwsorntfidAb9WdOw-17" value="服务入口" style="text;html=1;align=center;verticalAlign=middle;resizable=0;points=[];autosize=1;strokeColor=none;" vertex="1" parent="1">
          <mxGeometry x="349" y="20" width="60" height="20" as="geometry" />
        </mxCell>
        <mxCell id="MzCvwsorntfidAb9WdOw-21" value="" style="points=[[0,0,0],[0.25,0,0],[0.5,0,0],[0.75,0,0],[1,0,0],[0,1,0],[0.25,1,0],[0.5,1,0],[0.75,1,0],[1,1,0],[0,0.25,0],[0,0.5,0],[0,0.75,0],[1,0.25,0],[1,0.5,0],[1,0.75,0]];gradientDirection=north;outlineConnect=0;fontColor=#232F3E;gradientColor=#505863;fillColor=#1E262E;strokeColor=#ffffff;dashed=0;verticalLabelPosition=bottom;verticalAlign=top;align=center;html=1;fontSize=12;fontStyle=0;aspect=fixed;shape=mxgraph.aws4.resourceIcon;resIcon=mxgraph.aws4.general;" vertex="1" parent="1">
          <mxGeometry x="140" y="100" width="78" height="78" as="geometry" />
        </mxCell>
        <mxCell id="MzCvwsorntfidAb9WdOw-22" value="实时模型服务*14" style="points=[[0,0,0],[0.25,0,0],[0.5,0,0],[0.75,0,0],[1,0,0],[0,1,0],[0.25,1,0],[0.5,1,0],[0.75,1,0],[1,1,0],[0,0.25,0],[0,0.5,0],[0,0.75,0],[1,0.25,0],[1,0.5,0],[1,0.75,0]];gradientDirection=north;outlineConnect=0;fillColor=#e1d5e7;strokeColor=#9673a6;dashed=0;verticalLabelPosition=bottom;verticalAlign=top;align=center;html=1;fontSize=12;fontStyle=0;aspect=fixed;shape=mxgraph.aws4.resourceIcon;resIcon=mxgraph.aws4.general;" vertex="1" parent="1">
          <mxGeometry x="460.5" y="430" width="78" height="78" as="geometry" />
        </mxCell>
        <mxCell id="MzCvwsorntfidAb9WdOw-24" value="" style="edgeStyle=orthogonalEdgeStyle;rounded=0;orthogonalLoop=1;jettySize=auto;html=1;fontColor=#000000;" edge="1" parent="1" source="MzCvwsorntfidAb9WdOw-23" target="MzCvwsorntfidAb9WdOw-8">
          <mxGeometry relative="1" as="geometry" />
        </mxCell>
        <mxCell id="MzCvwsorntfidAb9WdOw-23" value="&lt;span&gt;172.24.149.71:9331&lt;/span&gt;" style="rounded=0;whiteSpace=wrap;html=1;fontColor=#333333;strokeWidth=1;fillColor=#f5f5f5;strokeColor=#666666;" vertex="1" parent="1">
          <mxGeometry x="297.5" y="51" width="163" height="39" as="geometry" />
        </mxCell>
        <mxCell id="MzCvwsorntfidAb9WdOw-25" value="画像服务*7" style="points=[[0,0,0],[0.25,0,0],[0.5,0,0],[0.75,0,0],[1,0,0],[0,1,0],[0.25,1,0],[0.5,1,0],[0.75,1,0],[1,1,0],[0,0.25,0],[0,0.5,0],[0,0.75,0],[1,0.25,0],[1,0.5,0],[1,0.75,0]];gradientDirection=north;outlineConnect=0;fillColor=#e1d5e7;strokeColor=#9673a6;dashed=0;verticalLabelPosition=bottom;verticalAlign=top;align=center;html=1;fontSize=12;fontStyle=0;aspect=fixed;shape=mxgraph.aws4.resourceIcon;resIcon=mxgraph.aws4.general;" vertex="1" parent="1">
          <mxGeometry x="220.5" y="430" width="78" height="78" as="geometry" />
        </mxCell>
        <mxCell id="MzCvwsorntfidAb9WdOw-35" style="edgeStyle=orthogonalEdgeStyle;rounded=0;orthogonalLoop=1;jettySize=auto;html=1;fontColor=#000000;" edge="1" parent="1" source="MzCvwsorntfidAb9WdOw-32" target="MzCvwsorntfidAb9WdOw-6">
          <mxGeometry relative="1" as="geometry" />
        </mxCell>
        <mxCell id="MzCvwsorntfidAb9WdOw-36" style="edgeStyle=orthogonalEdgeStyle;rounded=0;orthogonalLoop=1;jettySize=auto;html=1;entryX=0.5;entryY=0;entryDx=0;entryDy=0;entryPerimeter=0;fontColor=#000000;" edge="1" parent="1" source="MzCvwsorntfidAb9WdOw-32" target="MzCvwsorntfidAb9WdOw-25">
          <mxGeometry relative="1" as="geometry">
            <Array as="points">
              <mxPoint x="379" y="370" />
              <mxPoint x="260" y="370" />
            </Array>
          </mxGeometry>
        </mxCell>
        <mxCell id="MzCvwsorntfidAb9WdOw-32" value="Nginx" style="outlineConnect=0;fillColor=#60a917;strokeColor=#2D7600;dashed=0;verticalLabelPosition=bottom;verticalAlign=top;align=center;html=1;fontSize=12;fontStyle=0;aspect=fixed;pointerEvents=1;shape=mxgraph.aws4.instances_2;" vertex="1" parent="1">
          <mxGeometry x="355" y="260" width="48" height="48" as="geometry" />
        </mxCell>
        <mxCell id="MzCvwsorntfidAb9WdOw-38" value="" style="outlineConnect=0;fontColor=#232F3E;gradientColor=none;fillColor=#3334B9;strokeColor=none;dashed=0;verticalLabelPosition=bottom;verticalAlign=top;align=center;html=1;fontSize=12;fontStyle=0;aspect=fixed;pointerEvents=1;shape=mxgraph.aws4.cache_node;" vertex="1" parent="1">
          <mxGeometry x="290" y="590" width="78" height="78" as="geometry" />
        </mxCell>
      </root>
    </mxGraphModel>
  </diagram>
</mxfile>
